<svg xmlns="http://www.w3.org/2000/svg" viewBox="0 0 24 16" width="24" height="16" role="img"><rect width="24" height="16" fill="#fff"/><g fill="#b22234"><rect y="0.0" width="24" height="1.2308"/><rect y="2.4615" width="24" height="1.2308"/><rect y="4.9231" width="24" height="1.2308"/><rect y="7.3846" width="24" height="1.2308"/><rect y="9.8462" width="24" height="1.2308"/><rect y="12.3077" width="24" height="1.2308"/><rect y="14.7692" width="24" height="1.2308"/></g><rect width="9.6" height="8.615" fill="#3c3b6e"/><g fill="#fff"><circle cx="1.0" cy="1.05" r="0.42"/><circle cx="2.72" cy="1.05" r="0.42"/><circle cx="4.44" cy="1.05" r="0.42"/><circle cx="6.16" cy="1.05" r="0.42"/><circle cx="7.88" cy="1.05" r="0.42"/><circle cx="1.0" cy="2.95" r="0.42"/><circle cx="2.72" cy="2.95" r="0.42"/><circle cx="4.44" cy="2.95" r="0.42"/><circle cx="6.16" cy="2.95" r="0.42"/><circle cx="7.88" cy="2.95" r="0.42"/><circle cx="1.0" cy="4.85" r="0.42"/><circle cx="2.72" cy="4.85" r="0.42"/><circle cx="4.44" cy="4.85" r="0.42"/><circle cx="6.16" cy="4.85" r="0.42"/><circle cx="7.88" cy="4.85" r="0.42"/><circle cx="1.0" cy="6.75" r="0.42"/><circle cx="2.72" cy="6.75" r="0.42"/><circle cx="4.44" cy="6.75" r="0.42"/><circle cx="6.16" cy="6.75" r="0.42"/><circle cx="7.88" cy="6.75" r="0.42"/></g></svg>
